# xmcd
#
# Track frame offsets: 
#        150
#        23790
#        41665
#        64923
#        78687
#        104440
#        126725
#        143942
#        180261
#        195458
#        205147
#
# Disc length: 2901 seconds
#
# Revision: 3
# Processed by: cddbd v1.5.2PL0 Copyright (c) Steve Scherf et al.
# Submitted via: ExactAudioCopy v1.1
#
DISCID=a00b530b
DTITLE=Brian Auger and The Trinity  - Definitely What!...
DYEAR=1969
DGENRE=Jazz
TTITLE0=A Day In The Life (Lennon-McCartney)
TTITLE1=George Bruno Money (Auger)
TTITLE2=Far Horizon (Auger)
TTITLE3=John Brown's Body (Trad. Hill-Burdon-Auger)
TTITLE4=Red Beans And Rice (Jones-Cropper-Dunn-Jackson)
TTITLE5=Bumpin' On Sunset Montgomery)
TTITLE6=If You Live (Allison)
TTITLE7=Definitely What (Auger-Thacker-Ambrose)
TTITLE8=(bonus track) What You Gonna Do (Auger)
TTITLE9=(bonus track) Red Beans And Rice Pt.1 (Jones-Cropper-Dunn-Jack
TTITLE9=son)
TTITLE10=(bonus track) Red Beans And Rice Pt.2 - Bonus
EXTD=YEAR: 2004
EXTT0=
EXTT1=
EXTT2=
EXTT3=
EXTT4=
EXTT5=
EXTT6=
EXTT7=
EXTT8=
EXTT9=
EXTT10=
PLAYORDER=
